<?xml version="1.0" encoding="utf-8"?>
<!-- Generator: Adobe Illustrator 24.0.1, SVG Export Plug-In . SVG Version: 6.00 Build 0)  -->
<svg version="1.1" id="Layer_1" xmlns="http://www.w3.org/2000/svg" xmlns:xlink="http://www.w3.org/1999/xlink" x="0px" y="0px"
	 viewBox="0 0 512 512" style="enable-background:new 0 0 512 512;" xml:space="preserve">
<style type="text/css">
	.st0{opacity:0.98;fill:#FFFFFF;enable-background:new    ;}
	.st1{fill:#D52B1E;}
	.st2{fill:#0039A6;}
	.st3{fill:none;stroke:#000000;stroke-width:15;stroke-miterlimit:2.6131;}
</style>
<g>
	<path class="st0" d="M512,256.1H0c0-29.9,5.2-58.7,14.7-85.4C49.7,71.2,144.4,0,255.9,0s206.3,71.2,241.4,170.7
		C506.8,197.4,512,226.2,512,256.1z"/>
	<path class="st1" d="M512,256.1c0,29.9-5.2,58.7-14.7,85.4C462.3,440.8,367.4,512,255.9,512S49.7,440.8,14.6,341.4
		C5.2,314.7,0,285.9,0,256.1H512z"/>
	<path class="st2" d="M512,256.1c0,29.9-5.2,58.7-14.7,85.4H14.7C5.2,314.7,0,285.9,0,256.1s5.2-58.7,14.7-85.4h482.7
		C506.8,197.4,512,226.2,512,256.1z"/>
	<path class="st3" d="M512,256.1c0,29.9-5.2,58.7-14.7,85.4C462.3,440.8,367.4,512,255.9,512S49.7,440.8,14.6,341.4
		C5.2,314.7,0,285.9,0,256.1s5.2-58.7,14.7-85.4C49.7,71.2,144.4,0,255.9,0s206.3,71.2,241.4,170.7C506.8,197.4,512,226.2,512,256.1
		z"/>
</g>
</svg>
